<svg xmlns="http://www.w3.org/2000/svg" viewBox="0 0 59.219 55.138" width="900" height="838" font-family="Helvetica,Arial,sans-serif">
<rect x="0" y="0" width="59.219" height="55.138" fill="#ffffff"/>
<rect x="5.925" y="5.925" width="47.369" height="47.369" fill="#fbfbfb" stroke="#999" stroke-width="0.0987"/>
<rect x="46.8073" y="20.0917" width="2.7700" height="3.7700" fill="none" stroke="#9a9a9a" stroke-width="0.0658" stroke-dasharray="0.395"/>
<rect x="46.9423" y="20.2267" width="2.5000" height="3.5000" fill="#f8f088" stroke="#555" stroke-width="0.0526"/>
<rect x="5.9253" y="31.0856" width="2.7700" height="3.7700" fill="none" stroke="#9a9a9a" stroke-width="0.0658" stroke-dasharray="0.395"/>
<rect x="6.0603" y="31.2206" width="2.5000" height="3.5000" fill="#f8f088" stroke="#555" stroke-width="0.0526"/>
<rect x="33.1037" y="13.6177" width="2.7700" height="3.7700" fill="none" stroke="#9a9a9a" stroke-width="0.0658" stroke-dasharray="0.395"/>
<rect x="33.2387" y="13.7527" width="2.5000" height="3.5000" fill="#f8f088" stroke="#555" stroke-width="0.0526"/>
<rect x="43.2958" y="22.2021" width="2.7700" height="3.7700" fill="none" stroke="#9a9a9a" stroke-width="0.0658" stroke-dasharray="0.395"/>
<rect x="43.4308" y="22.3371" width="2.5000" height="3.5000" fill="#f8f088" stroke="#555" stroke-width="0.0526"/>
<rect x="47.0896" y="24.6019" width="2.7700" height="3.7700" fill="none" stroke="#9a9a9a" stroke-width="0.0658" stroke-dasharray="0.395"/>
<rect x="47.2246" y="24.7369" width="2.5000" height="3.5000" fill="#f8f088" stroke="#555" stroke-width="0.0526"/>
<rect x="6.3723" y="5.9253" width="2.7700" height="3.7700" fill="none" stroke="#9a9a9a" stroke-width="0.0658" stroke-dasharray="0.395"/>
<rect x="6.5073" y="6.0603" width="2.5000" height="3.5000" fill="#f8f088" stroke="#555" stroke-width="0.0526"/>
<rect x="22.7923" y="8.0933" width="5.3600" height="5.3600" fill="none" stroke="#9a9a9a" stroke-width="0.0658" stroke-dasharray="0.395"/>
<rect x="22.9723" y="8.2733" width="5.0000" height="5.0000" fill="#f5dd6f" stroke="#555" stroke-width="0.0526"/>
<rect x="29.2154" y="7.6466" width="5.2700" height="5.2700" fill="none" stroke="#9a9a9a" stroke-width="0.0658" stroke-dasharray="0.395"/>
<rect x="29.3504" y="7.7816" width="5.0000" height="5.0000" fill="#f5dd6f" stroke="#555" stroke-width="0.0526"/>
<rect x="17.1673" y="15.1123" width="5.2700" height="5.2700" fill="none" stroke="#9a9a9a" stroke-width="0.0658" stroke-dasharray="0.395"/>
<rect x="17.3023" y="15.2473" width="5.0000" height="5.0000" fill="#f5dd6f" stroke="#555" stroke-width="0.0526"/>
<rect x="11.0879" y="45.0658" width="5.2700" height="5.2700" fill="none" stroke="#9a9a9a" stroke-width="0.0658" stroke-dasharray="0.395"/>
<rect x="11.2229" y="45.2008" width="5.0000" height="5.0000" fill="#f5dd6f" stroke="#555" stroke-width="0.0526"/>
<rect x="10.1040" y="5.9636" width="5.3600" height="5.3600" fill="none" stroke="#9a9a9a" stroke-width="0.0658" stroke-dasharray="0.395"/>
<rect x="10.2840" y="6.1436" width="5.0000" height="5.0000" fill="#f5dd6f" stroke="#555" stroke-width="0.0526"/>
<rect x="16.4675" y="8.9403" width="5.2700" height="5.2700" fill="none" stroke="#9a9a9a" stroke-width="0.0658" stroke-dasharray="0.395"/>
<rect x="16.6025" y="9.0753" width="5.0000" height="5.0000" fill="#f5dd6f" stroke="#555" stroke-width="0.0526"/>
<rect x="5.9253" y="25.0611" width="5.2700" height="5.2700" fill="none" stroke="#9a9a9a" stroke-width="0.0658" stroke-dasharray="0.395"/>
<rect x="6.0603" y="25.1961" width="5.0000" height="5.0000" fill="#f5dd6f" stroke="#555" stroke-width="0.0526"/>
<rect x="26.4931" y="14.3451" width="5.2700" height="5.2700" fill="none" stroke="#9a9a9a" stroke-width="0.0658" stroke-dasharray="0.395"/>
<rect x="26.6281" y="14.4801" width="5.0000" height="5.0000" fill="#f5dd6f" stroke="#555" stroke-width="0.0526"/>
<rect x="27.3823" y="22.4945" width="5.3600" height="5.3600" fill="none" stroke="#9a9a9a" stroke-width="0.0658" stroke-dasharray="0.395"/>
<rect x="27.5623" y="22.6745" width="5.0000" height="5.0000" fill="#f5dd6f" stroke="#555" stroke-width="0.0526"/>
<rect x="21.7913" y="35.9008" width="9.0900" height="9.0900" fill="none" stroke="#9a9a9a" stroke-width="0.0658" stroke-dasharray="0.395"/>
<rect x="21.8363" y="35.9458" width="9.0000" height="9.0000" fill="#eb5f50" stroke="#555" stroke-width="0.0526"/>
<rect x="33.4233" y="20.0668" width="9.0900" height="9.0900" fill="none" stroke="#9a9a9a" stroke-width="0.0658" stroke-dasharray="0.395"/>
<rect x="33.4683" y="20.1118" width="9.0000" height="9.0000" fill="#eb5f50" stroke="#555" stroke-width="0.0526"/>
<rect x="8.6009" y="34.9400" width="9.0900" height="9.0900" fill="none" stroke="#9a9a9a" stroke-width="0.0658" stroke-dasharray="0.395"/>
<rect x="8.6459" y="34.9850" width="9.0000" height="9.0000" fill="#eb5f50" stroke="#555" stroke-width="0.0526"/>
<rect x="17.5024" y="22.9379" width="9.0900" height="9.0900" fill="none" stroke="#9a9a9a" stroke-width="0.0658" stroke-dasharray="0.395"/>
<rect x="17.5474" y="22.9829" width="9.0000" height="9.0000" fill="#eb5f50" stroke="#555" stroke-width="0.0526"/>
<rect x="34.6447" y="30.3671" width="8.0000" height="12.0000" fill="#f6e579" stroke="#555" stroke-width="0.0526"/>
<rect x="44.7465" y="30.4951" width="8.0000" height="12.0000" fill="#f6e579" stroke="#555" stroke-width="0.0526"/>
<rect x="42.7473" y="7.1550" width="8.0000" height="12.0000" fill="#f6e579" stroke="#555" stroke-width="0.0526"/>
<rect x="5.9703" y="12.3671" width="8.0000" height="12.0000" fill="#f6e579" stroke="#555" stroke-width="0.0526"/>
<rect x="11.8523" y="25.5098" width="5.0900" height="5.0900" fill="none" stroke="#9a9a9a" stroke-width="0.0658" stroke-dasharray="0.395"/>
<rect x="11.8973" y="25.5548" width="5.0000" height="5.0000" fill="#f9f18b" stroke="#555" stroke-width="0.0526"/>
<rect x="27.4808" y="29.3109" width="5.0900" height="5.0900" fill="none" stroke="#9a9a9a" stroke-width="0.0658" stroke-dasharray="0.395"/>
<rect x="27.5258" y="29.3559" width="5.0000" height="5.0000" fill="#f9f18b" stroke="#555" stroke-width="0.0526"/>
<rect x="36.7880" y="15.4291" width="2.0900" height="1.2900" fill="none" stroke="#9a9a9a" stroke-width="0.0658" stroke-dasharray="0.395"/>
<rect x="36.8330" y="15.4741" width="2.0000" height="1.2000" fill="#faf793" stroke="#555" stroke-width="0.0526"/>
<rect x="36.6079" y="12.9651" width="2.0900" height="1.2900" fill="none" stroke="#9a9a9a" stroke-width="0.0658" stroke-dasharray="0.395"/>
<rect x="36.6529" y="13.0101" width="2.0000" height="1.2000" fill="#faf793" stroke="#555" stroke-width="0.0526"/>
<rect x="18.3628" y="38.5203" width="2.0900" height="1.2900" fill="none" stroke="#9a9a9a" stroke-width="0.0658" stroke-dasharray="0.395"/>
<rect x="18.4078" y="38.5653" width="2.0000" height="1.2000" fill="#faf793" stroke="#555" stroke-width="0.0526"/>
<rect x="24.5559" y="46.5766" width="2.0900" height="1.2900" fill="none" stroke="#9a9a9a" stroke-width="0.0658" stroke-dasharray="0.395"/>
<rect x="24.6009" y="46.6216" width="2.0000" height="1.2000" fill="#faf793" stroke="#555" stroke-width="0.0526"/>
<rect x="14.6441" y="19.6810" width="2.0900" height="1.2900" fill="none" stroke="#9a9a9a" stroke-width="0.0658" stroke-dasharray="0.395"/>
<rect x="14.6891" y="19.7260" width="2.0000" height="1.2000" fill="#faf793" stroke="#555" stroke-width="0.0526"/>
<rect x="9.7610" y="32.9268" width="2.0900" height="1.2900" fill="none" stroke="#9a9a9a" stroke-width="0.0658" stroke-dasharray="0.395"/>
<rect x="9.8060" y="32.9718" width="2.0000" height="1.2000" fill="#faf793" stroke="#555" stroke-width="0.0526"/>
<rect x="15.4306" y="21.5801" width="2.0900" height="1.2900" fill="none" stroke="#9a9a9a" stroke-width="0.0658" stroke-dasharray="0.395"/>
<rect x="15.4756" y="21.6251" width="2.0000" height="1.2000" fill="#faf793" stroke="#555" stroke-width="0.0526"/>
<rect x="35.8379" y="10.2180" width="2.0900" height="1.2900" fill="none" stroke="#9a9a9a" stroke-width="0.0658" stroke-dasharray="0.395"/>
<rect x="35.8829" y="10.2630" width="2.0000" height="1.2000" fill="#faf793" stroke="#555" stroke-width="0.0526"/>
<rect x="32.5293" y="18.1352" width="2.0900" height="1.2900" fill="none" stroke="#9a9a9a" stroke-width="0.0658" stroke-dasharray="0.395"/>
<rect x="32.5743" y="18.1802" width="2.0000" height="1.2000" fill="#faf793" stroke="#555" stroke-width="0.0526"/>
<rect x="43.4021" y="26.7630" width="2.0900" height="1.2900" fill="none" stroke="#9a9a9a" stroke-width="0.0658" stroke-dasharray="0.395"/>
<rect x="43.4471" y="26.8080" width="2.0000" height="1.2000" fill="#faf793" stroke="#555" stroke-width="0.0526"/>
<rect x="12.8083" y="31.7060" width="2.0900" height="1.2900" fill="none" stroke="#9a9a9a" stroke-width="0.0658" stroke-dasharray="0.395"/>
<rect x="12.8533" y="31.7510" width="2.0000" height="1.2000" fill="#faf793" stroke="#555" stroke-width="0.0526"/>
<rect x="32.0826" y="43.6853" width="2.0900" height="1.2900" fill="none" stroke="#9a9a9a" stroke-width="0.0658" stroke-dasharray="0.395"/>
<rect x="32.1276" y="43.7303" width="2.0000" height="1.2000" fill="#faf793" stroke="#555" stroke-width="0.0526"/>
<rect x="23.1947" y="19.4643" width="2.0900" height="1.2900" fill="none" stroke="#9a9a9a" stroke-width="0.0658" stroke-dasharray="0.395"/>
<rect x="23.2397" y="19.5093" width="2.0000" height="1.2000" fill="#faf793" stroke="#555" stroke-width="0.0526"/>
<rect x="21.0503" y="46.0857" width="2.0900" height="1.2900" fill="none" stroke="#9a9a9a" stroke-width="0.0658" stroke-dasharray="0.395"/>
<rect x="21.0953" y="46.1307" width="2.0000" height="1.2000" fill="#faf793" stroke="#555" stroke-width="0.0526"/>
<rect x="35.4441" y="17.7113" width="2.0900" height="1.2900" fill="none" stroke="#9a9a9a" stroke-width="0.0658" stroke-dasharray="0.395"/>
<rect x="35.4891" y="17.7563" width="2.0000" height="1.2000" fill="#faf793" stroke="#555" stroke-width="0.0526"/>
<rect x="17.5859" y="33.5308" width="2.0900" height="1.2900" fill="none" stroke="#9a9a9a" stroke-width="0.0658" stroke-dasharray="0.395"/>
<rect x="17.6309" y="33.5758" width="2.0000" height="1.2000" fill="#faf793" stroke="#555" stroke-width="0.0526"/>
<rect x="5.9253" y="46.0097" width="2.0900" height="1.2900" fill="none" stroke="#9a9a9a" stroke-width="0.0658" stroke-dasharray="0.395"/>
<rect x="5.9703" y="46.0547" width="2.0000" height="1.2000" fill="#faf793" stroke="#555" stroke-width="0.0526"/>
<rect x="5.9253" y="42.0283" width="2.0900" height="1.2900" fill="none" stroke="#9a9a9a" stroke-width="0.0658" stroke-dasharray="0.395"/>
<rect x="5.9703" y="42.0733" width="2.0000" height="1.2000" fill="#faf793" stroke="#555" stroke-width="0.0526"/>
<rect x="35.6659" y="8.0520" width="2.0900" height="1.2900" fill="none" stroke="#9a9a9a" stroke-width="0.0658" stroke-dasharray="0.395"/>
<rect x="35.7109" y="8.0970" width="2.0000" height="1.2000" fill="#faf793" stroke="#555" stroke-width="0.0526"/>
<rect x="20.5185" y="33.5004" width="2.0900" height="1.2900" fill="none" stroke="#9a9a9a" stroke-width="0.0658" stroke-dasharray="0.395"/>
<rect x="20.5635" y="33.5454" width="2.0000" height="1.2000" fill="#faf793" stroke="#555" stroke-width="0.0526"/>
<rect x="9.2564" y="31.0023" width="2.0900" height="1.2900" fill="none" stroke="#9a9a9a" stroke-width="0.0658" stroke-dasharray="0.395"/>
<rect x="9.3014" y="31.0473" width="2.0000" height="1.2000" fill="#faf793" stroke="#555" stroke-width="0.0526"/>
<rect x="18.3572" y="35.7058" width="2.0900" height="1.2900" fill="none" stroke="#9a9a9a" stroke-width="0.0658" stroke-dasharray="0.395"/>
<rect x="18.4022" y="35.7508" width="2.0000" height="1.2000" fill="#faf793" stroke="#555" stroke-width="0.0526"/>
<rect x="17.6343" y="46.8817" width="2.0900" height="1.2900" fill="none" stroke="#9a9a9a" stroke-width="0.0658" stroke-dasharray="0.395"/>
<rect x="17.6793" y="46.9267" width="2.0000" height="1.2000" fill="#faf793" stroke="#555" stroke-width="0.0526"/>
<rect x="6.4297" y="10.3535" width="2.0900" height="1.2900" fill="none" stroke="#9a9a9a" stroke-width="0.0658" stroke-dasharray="0.395"/>
<rect x="6.4747" y="10.3985" width="2.0000" height="1.2000" fill="#faf793" stroke="#555" stroke-width="0.0526"/>
<rect x="8.2442" y="45.0175" width="2.0900" height="1.2900" fill="none" stroke="#9a9a9a" stroke-width="0.0658" stroke-dasharray="0.395"/>
<rect x="8.2892" y="45.0625" width="2.0000" height="1.2000" fill="#faf793" stroke="#555" stroke-width="0.0526"/>
<rect x="28.6044" y="46.2958" width="2.0900" height="1.2900" fill="none" stroke="#9a9a9a" stroke-width="0.0658" stroke-dasharray="0.395"/>
<rect x="28.6494" y="46.3408" width="2.0000" height="1.2000" fill="#faf793" stroke="#555" stroke-width="0.0526"/>
<rect x="43.2303" y="20.0943" width="2.0900" height="1.2900" fill="none" stroke="#9a9a9a" stroke-width="0.0658" stroke-dasharray="0.395"/>
<rect x="43.2753" y="20.1393" width="2.0000" height="1.2000" fill="#faf793" stroke="#555" stroke-width="0.0526"/>
<rect x="42.6478" y="28.9928" width="2.0900" height="1.2900" fill="none" stroke="#9a9a9a" stroke-width="0.0658" stroke-dasharray="0.395"/>
<rect x="42.6928" y="29.0378" width="2.0000" height="1.2000" fill="#faf793" stroke="#555" stroke-width="0.0526"/>
<rect x="45.0989" y="28.4586" width="2.0900" height="1.2900" fill="none" stroke="#9a9a9a" stroke-width="0.0658" stroke-dasharray="0.395"/>
<rect x="45.1439" y="28.5036" width="2.0000" height="1.2000" fill="#faf793" stroke="#555" stroke-width="0.0526"/>
<rect x="18.1451" y="44.6018" width="2.0900" height="1.2900" fill="none" stroke="#9a9a9a" stroke-width="0.0658" stroke-dasharray="0.395"/>
<rect x="18.1901" y="44.6468" width="2.0000" height="1.2000" fill="#faf793" stroke="#555" stroke-width="0.0526"/>
<rect x="16.3412" y="6.8031" width="2.0900" height="1.2900" fill="none" stroke="#9a9a9a" stroke-width="0.0658" stroke-dasharray="0.395"/>
<rect x="16.3862" y="6.8481" width="2.0000" height="1.2000" fill="#faf793" stroke="#555" stroke-width="0.0526"/>
<rect x="5.9276" y="44.0111" width="2.0900" height="1.2900" fill="none" stroke="#9a9a9a" stroke-width="0.0658" stroke-dasharray="0.395"/>
<rect x="5.9726" y="44.0561" width="2.0000" height="1.2000" fill="#faf793" stroke="#555" stroke-width="0.0526"/>
<rect x="23.3068" y="17.1297" width="2.0900" height="1.2900" fill="none" stroke="#9a9a9a" stroke-width="0.0658" stroke-dasharray="0.395"/>
<rect x="23.3518" y="17.1747" width="2.0000" height="1.2000" fill="#faf793" stroke="#555" stroke-width="0.0526"/>
<rect x="14.5622" y="23.4654" width="2.0900" height="1.2900" fill="none" stroke="#9a9a9a" stroke-width="0.0658" stroke-dasharray="0.395"/>
<rect x="14.6072" y="23.5104" width="2.0000" height="1.2000" fill="#faf793" stroke="#555" stroke-width="0.0526"/>
<rect x="26.0105" y="20.4897" width="2.0900" height="1.2900" fill="none" stroke="#9a9a9a" stroke-width="0.0658" stroke-dasharray="0.395"/>
<rect x="26.0555" y="20.5347" width="2.0000" height="1.2000" fill="#faf793" stroke="#555" stroke-width="0.0526"/>
<rect x="7.6833" y="47.5485" width="2.0900" height="1.2900" fill="none" stroke="#9a9a9a" stroke-width="0.0658" stroke-dasharray="0.395"/>
<rect x="7.7283" y="47.5935" width="2.0000" height="1.2000" fill="#faf793" stroke="#555" stroke-width="0.0526"/>
<text x="5.925" y="2.3230" font-size="1.2575" font-weight="bold" fill="#111">Case10  |  Flow best-of-20 :  best-WL (min TAP-2.5D wirelength)</text>
<text x="5.925" y="3.8862" font-size="1.1842" fill="#111">seed 73  |  HotSpot peak 114.69 C  |  TAP-2.5D avg 22.670 mm</text>
<text x="5.925" y="5.2621" font-size="1.0424" fill="#111">61 chiplets  |  legal True  |  wire_count 10560  |  canvas 47.37 -&gt; 48.56 mm</text>
<text x="5.925" y="54.7299" font-size="0.8167" fill="#666">raw body-50% candidate JSON; HotSpot and TAP evaluated after centring on the footprint-50% canvas</text>
</svg>
