<svg xmlns="http://www.w3.org/2000/svg" viewBox="0 0 62.637 58.070" width="900" height="834" font-family="Helvetica,Arial,sans-serif">
<rect x="0" y="0" width="62.637" height="58.070" fill="#ffffff"/>
<rect x="6.499" y="6.499" width="49.639" height="49.639" fill="#fbfbfb" stroke="#999" stroke-width="0.1044"/>
<rect x="16.4600" y="50.7778" width="5.3600" height="5.3600" fill="none" stroke="#9a9a9a" stroke-width="0.0696" stroke-dasharray="0.414"/>
<rect x="16.6400" y="50.9578" width="5.0000" height="5.0000" fill="#f5dd6f" stroke="#555" stroke-width="0.0557"/>
<rect x="24.6756" y="47.9692" width="5.3600" height="5.3600" fill="none" stroke="#9a9a9a" stroke-width="0.0696" stroke-dasharray="0.414"/>
<rect x="24.8556" y="48.1492" width="5.0000" height="5.0000" fill="#f5dd6f" stroke="#555" stroke-width="0.0557"/>
<rect x="24.6563" y="41.5717" width="5.3600" height="5.3600" fill="none" stroke="#9a9a9a" stroke-width="0.0696" stroke-dasharray="0.414"/>
<rect x="24.8363" y="41.7517" width="5.0000" height="5.0000" fill="#f5dd6f" stroke="#555" stroke-width="0.0557"/>
<rect x="31.2313" y="6.4991" width="5.3600" height="5.3600" fill="none" stroke="#9a9a9a" stroke-width="0.0696" stroke-dasharray="0.414"/>
<rect x="31.4113" y="6.6791" width="5.0000" height="5.0000" fill="#f5dd6f" stroke="#555" stroke-width="0.0557"/>
<rect x="40.9184" y="12.6554" width="5.3600" height="5.3600" fill="none" stroke="#9a9a9a" stroke-width="0.0696" stroke-dasharray="0.414"/>
<rect x="41.0984" y="12.8354" width="5.0000" height="5.0000" fill="#f5dd6f" stroke="#555" stroke-width="0.0557"/>
<rect x="31.0909" y="44.6594" width="5.3600" height="5.3600" fill="none" stroke="#9a9a9a" stroke-width="0.0696" stroke-dasharray="0.414"/>
<rect x="31.2709" y="44.8394" width="5.0000" height="5.0000" fill="#f5dd6f" stroke="#555" stroke-width="0.0557"/>
<rect x="6.7774" y="18.5277" width="5.3600" height="5.3600" fill="none" stroke="#9a9a9a" stroke-width="0.0696" stroke-dasharray="0.414"/>
<rect x="6.9574" y="18.7077" width="5.0000" height="5.0000" fill="#f5dd6f" stroke="#555" stroke-width="0.0557"/>
<rect x="17.1184" y="32.4999" width="5.3600" height="5.3600" fill="none" stroke="#9a9a9a" stroke-width="0.0696" stroke-dasharray="0.414"/>
<rect x="17.2984" y="32.6799" width="5.0000" height="5.0000" fill="#f5dd6f" stroke="#555" stroke-width="0.0557"/>
<rect x="10.3624" y="40.8153" width="9.1800" height="9.1800" fill="none" stroke="#9a9a9a" stroke-width="0.0696" stroke-dasharray="0.414"/>
<rect x="10.4524" y="40.9053" width="9.0000" height="9.0000" fill="#eb5f50" stroke="#555" stroke-width="0.0557"/>
<rect x="7.9519" y="7.4674" width="9.1800" height="9.1800" fill="none" stroke="#9a9a9a" stroke-width="0.0696" stroke-dasharray="0.414"/>
<rect x="8.0419" y="7.5574" width="9.0000" height="9.0000" fill="#eb5f50" stroke="#555" stroke-width="0.0557"/>
<rect x="35.5255" y="34.9273" width="9.1800" height="9.1800" fill="none" stroke="#9a9a9a" stroke-width="0.0696" stroke-dasharray="0.414"/>
<rect x="35.6155" y="35.0173" width="9.0000" height="9.0000" fill="#eb5f50" stroke="#555" stroke-width="0.0557"/>
<rect x="20.0594" y="7.6287" width="9.1800" height="9.1800" fill="none" stroke="#9a9a9a" stroke-width="0.0696" stroke-dasharray="0.414"/>
<rect x="20.1494" y="7.7187" width="9.0000" height="9.0000" fill="#eb5f50" stroke="#555" stroke-width="0.0557"/>
<rect x="43.1321" y="20.7876" width="8.0900" height="12.0900" fill="none" stroke="#9a9a9a" stroke-width="0.0696" stroke-dasharray="0.414"/>
<rect x="43.1771" y="20.8326" width="8.0000" height="12.0000" fill="#f6e579" stroke="#555" stroke-width="0.0557"/>
<rect x="33.8938" y="22.1365" width="8.0900" height="12.0900" fill="none" stroke="#9a9a9a" stroke-width="0.0696" stroke-dasharray="0.414"/>
<rect x="33.9388" y="22.1815" width="8.0000" height="12.0000" fill="#f6e579" stroke="#555" stroke-width="0.0557"/>
<rect x="13.2125" y="17.9163" width="8.0900" height="12.0900" fill="none" stroke="#9a9a9a" stroke-width="0.0696" stroke-dasharray="0.414"/>
<rect x="13.2575" y="17.9613" width="8.0000" height="12.0000" fill="#f6e579" stroke="#555" stroke-width="0.0557"/>
<rect x="47.2343" y="7.5062" width="8.0900" height="12.0900" fill="none" stroke="#9a9a9a" stroke-width="0.0696" stroke-dasharray="0.414"/>
<rect x="47.2793" y="7.5512" width="8.0000" height="12.0000" fill="#f6e579" stroke="#555" stroke-width="0.0557"/>
<rect x="30.9117" y="12.3728" width="9.0900" height="9.0900" fill="none" stroke="#9a9a9a" stroke-width="0.0696" stroke-dasharray="0.414"/>
<rect x="30.9567" y="12.4178" width="9.0000" height="9.0000" fill="#f7e97f" stroke="#555" stroke-width="0.0557"/>
<rect x="7.0631" y="30.9929" width="9.0900" height="9.0900" fill="none" stroke="#9a9a9a" stroke-width="0.0696" stroke-dasharray="0.414"/>
<rect x="7.1081" y="31.0379" width="9.0000" height="9.0000" fill="#f7e97f" stroke="#555" stroke-width="0.0557"/>
<rect x="22.0368" y="21.6400" width="9.0900" height="9.0900" fill="none" stroke="#9a9a9a" stroke-width="0.0696" stroke-dasharray="0.414"/>
<rect x="22.0818" y="21.6850" width="9.0000" height="9.0000" fill="#f7e97f" stroke="#555" stroke-width="0.0557"/>
<rect x="23.4810" y="31.5097" width="9.0900" height="9.0900" fill="none" stroke="#9a9a9a" stroke-width="0.0696" stroke-dasharray="0.414"/>
<rect x="23.5260" y="31.5547" width="9.0000" height="9.0000" fill="#f7e97f" stroke="#555" stroke-width="0.0557"/>
<text x="6.499" y="2.7242" font-size="1.5373" font-weight="bold" fill="#111">Case6  |  Flow best-of-20 :  best-T (min HotSpot peak)</text>
<text x="6.499" y="4.3623" font-size="1.2410" fill="#111">seed 67  |  HotSpot peak 97.48 C  |  TAP-2.5D avg 27.500 mm</text>
<text x="6.499" y="5.8042" font-size="1.0923" fill="#111">20 chiplets  |  legal True  |  wire_count 11264  |  canvas 49.64 -&gt; 50.77 mm</text>
<text x="6.499" y="57.6425" font-size="0.8558" fill="#666">raw body-50% candidate JSON; HotSpot and TAP evaluated after centring on the footprint-50% canvas</text>
</svg>
