<svg xmlns="http://www.w3.org/2000/svg" viewBox="0 0 33.089 30.792" width="900" height="838" font-family="Helvetica,Arial,sans-serif">
<rect x="0" y="0" width="33.089" height="30.792" fill="#ffffff"/>
<rect x="3.331" y="3.331" width="26.427" height="26.427" fill="#fbfbfb" stroke="#999" stroke-width="0.0551"/>
<rect x="16.2777" y="9.3283" width="2.7700" height="3.7700" fill="none" stroke="#9a9a9a" stroke-width="0.0368" stroke-dasharray="0.220"/>
<rect x="16.4127" y="9.4633" width="2.5000" height="3.5000" fill="#f5dc6e" stroke="#555" stroke-width="0.0294"/>
<rect x="6.1390" y="15.1413" width="2.7700" height="3.7700" fill="none" stroke="#9a9a9a" stroke-width="0.0368" stroke-dasharray="0.220"/>
<rect x="6.2740" y="15.2763" width="2.5000" height="3.5000" fill="#f5dc6e" stroke="#555" stroke-width="0.0294"/>
<rect x="8.9411" y="18.8758" width="2.7700" height="3.7700" fill="none" stroke="#9a9a9a" stroke-width="0.0368" stroke-dasharray="0.220"/>
<rect x="9.0761" y="19.0108" width="2.5000" height="3.5000" fill="#f5dc6e" stroke="#555" stroke-width="0.0294"/>
<rect x="3.3309" y="15.1600" width="2.7700" height="3.7700" fill="none" stroke="#9a9a9a" stroke-width="0.0368" stroke-dasharray="0.220"/>
<rect x="3.4659" y="15.2950" width="2.5000" height="3.5000" fill="#f5dc6e" stroke="#555" stroke-width="0.0294"/>
<rect x="21.0002" y="18.0009" width="2.7700" height="3.7700" fill="none" stroke="#9a9a9a" stroke-width="0.0368" stroke-dasharray="0.220"/>
<rect x="21.1352" y="18.1359" width="2.5000" height="3.5000" fill="#f5dc6e" stroke="#555" stroke-width="0.0294"/>
<rect x="19.9631" y="3.6668" width="2.7700" height="3.7700" fill="none" stroke="#9a9a9a" stroke-width="0.0368" stroke-dasharray="0.220"/>
<rect x="20.0981" y="3.8018" width="2.5000" height="3.5000" fill="#f5dc6e" stroke="#555" stroke-width="0.0294"/>
<rect x="12.2499" y="15.3719" width="2.7700" height="3.7700" fill="none" stroke="#9a9a9a" stroke-width="0.0368" stroke-dasharray="0.220"/>
<rect x="12.3849" y="15.5069" width="2.5000" height="3.5000" fill="#f5dc6e" stroke="#555" stroke-width="0.0294"/>
<rect x="5.0740" y="19.4546" width="2.7700" height="3.7700" fill="none" stroke="#9a9a9a" stroke-width="0.0368" stroke-dasharray="0.220"/>
<rect x="5.2090" y="19.5896" width="2.5000" height="3.5000" fill="#f5dc6e" stroke="#555" stroke-width="0.0294"/>
<rect x="15.0865" y="15.1364" width="5.3600" height="5.3600" fill="none" stroke="#9a9a9a" stroke-width="0.0368" stroke-dasharray="0.220"/>
<rect x="15.2665" y="15.3164" width="5.0000" height="5.0000" fill="#eb5f50" stroke="#555" stroke-width="0.0294"/>
<rect x="14.6898" y="22.5825" width="5.3600" height="5.3600" fill="none" stroke="#9a9a9a" stroke-width="0.0368" stroke-dasharray="0.220"/>
<rect x="14.8698" y="22.7625" width="5.0000" height="5.0000" fill="#eb5f50" stroke="#555" stroke-width="0.0294"/>
<rect x="6.8221" y="5.7179" width="9.0900" height="9.0900" fill="none" stroke="#9a9a9a" stroke-width="0.0368" stroke-dasharray="0.220"/>
<rect x="6.8671" y="5.7629" width="9.0000" height="9.0000" fill="#f4bd60" stroke="#555" stroke-width="0.0294"/>
<rect x="20.6682" y="8.3303" width="9.0900" height="9.0900" fill="none" stroke="#9a9a9a" stroke-width="0.0368" stroke-dasharray="0.220"/>
<rect x="20.7132" y="8.3753" width="9.0000" height="9.0000" fill="#f4bd60" stroke="#555" stroke-width="0.0294"/>
<rect x="5.8767" y="3.3309" width="3.0900" height="2.0900" fill="none" stroke="#9a9a9a" stroke-width="0.0368" stroke-dasharray="0.220"/>
<rect x="5.9217" y="3.3759" width="3.0000" height="2.0000" fill="#f8f089" stroke="#555" stroke-width="0.0294"/>
<rect x="3.3309" y="12.5562" width="3.0900" height="2.0900" fill="none" stroke="#9a9a9a" stroke-width="0.0368" stroke-dasharray="0.220"/>
<rect x="3.3759" y="12.6012" width="3.0000" height="2.0000" fill="#f8f089" stroke="#555" stroke-width="0.0294"/>
<rect x="9.0637" y="27.2831" width="3.0900" height="2.0900" fill="none" stroke="#9a9a9a" stroke-width="0.0368" stroke-dasharray="0.220"/>
<rect x="9.1087" y="27.3281" width="3.0000" height="2.0000" fill="#f8f089" stroke="#555" stroke-width="0.0294"/>
<rect x="9.0224" y="16.0163" width="3.0900" height="2.0900" fill="none" stroke="#9a9a9a" stroke-width="0.0368" stroke-dasharray="0.220"/>
<rect x="9.0674" y="16.0613" width="3.0000" height="2.0000" fill="#f8f089" stroke="#555" stroke-width="0.0294"/>
<rect x="16.2693" y="4.0187" width="3.0900" height="2.0900" fill="none" stroke="#9a9a9a" stroke-width="0.0368" stroke-dasharray="0.220"/>
<rect x="16.3143" y="4.0637" width="3.0000" height="2.0000" fill="#f8f089" stroke="#555" stroke-width="0.0294"/>
<rect x="3.3309" y="9.8935" width="3.0900" height="2.0900" fill="none" stroke="#9a9a9a" stroke-width="0.0368" stroke-dasharray="0.220"/>
<rect x="3.3759" y="9.9385" width="3.0000" height="2.0000" fill="#f8f089" stroke="#555" stroke-width="0.0294"/>
<rect x="7.9221" y="24.7011" width="3.0900" height="2.0900" fill="none" stroke="#9a9a9a" stroke-width="0.0368" stroke-dasharray="0.220"/>
<rect x="7.9671" y="24.7461" width="3.0000" height="2.0000" fill="#f8f089" stroke="#555" stroke-width="0.0294"/>
<rect x="3.6502" y="25.1740" width="3.0900" height="2.0900" fill="none" stroke="#9a9a9a" stroke-width="0.0368" stroke-dasharray="0.220"/>
<rect x="3.6952" y="25.2190" width="3.0000" height="2.0000" fill="#f8f089" stroke="#555" stroke-width="0.0294"/>
<rect x="14.2786" y="20.8785" width="2.0900" height="1.2900" fill="none" stroke="#9a9a9a" stroke-width="0.0368" stroke-dasharray="0.220"/>
<rect x="14.3236" y="20.9235" width="2.0000" height="1.2000" fill="#f9f28c" stroke="#555" stroke-width="0.0294"/>
<rect x="11.9624" y="21.7486" width="2.0900" height="1.2900" fill="none" stroke="#9a9a9a" stroke-width="0.0368" stroke-dasharray="0.220"/>
<rect x="12.0074" y="21.7936" width="2.0000" height="1.2000" fill="#f9f28c" stroke="#555" stroke-width="0.0294"/>
<rect x="18.2095" y="13.4432" width="2.0900" height="1.2900" fill="none" stroke="#9a9a9a" stroke-width="0.0368" stroke-dasharray="0.220"/>
<rect x="18.2545" y="13.4882" width="2.0000" height="1.2000" fill="#f9f28c" stroke="#555" stroke-width="0.0294"/>
<rect x="18.3281" y="7.7700" width="2.0900" height="1.2900" fill="none" stroke="#9a9a9a" stroke-width="0.0368" stroke-dasharray="0.220"/>
<rect x="18.3731" y="7.8150" width="2.0000" height="1.2000" fill="#f9f28c" stroke="#555" stroke-width="0.0294"/>
<rect x="16.0930" y="6.7033" width="2.0900" height="1.2900" fill="none" stroke="#9a9a9a" stroke-width="0.0368" stroke-dasharray="0.220"/>
<rect x="16.1380" y="6.7483" width="2.0000" height="1.2000" fill="#f9f28c" stroke="#555" stroke-width="0.0294"/>
<rect x="3.3309" y="4.0905" width="2.0900" height="1.2900" fill="none" stroke="#9a9a9a" stroke-width="0.0368" stroke-dasharray="0.220"/>
<rect x="3.3759" y="4.1355" width="2.0000" height="1.2000" fill="#f9f28c" stroke="#555" stroke-width="0.0294"/>
<rect x="8.7963" y="22.9548" width="2.0900" height="1.2900" fill="none" stroke="#9a9a9a" stroke-width="0.0368" stroke-dasharray="0.220"/>
<rect x="8.8413" y="22.9998" width="2.0000" height="1.2000" fill="#f9f28c" stroke="#555" stroke-width="0.0294"/>
<rect x="3.3309" y="23.4499" width="2.0900" height="1.2900" fill="none" stroke="#9a9a9a" stroke-width="0.0368" stroke-dasharray="0.220"/>
<rect x="3.3759" y="23.4949" width="2.0000" height="1.2000" fill="#f9f28c" stroke="#555" stroke-width="0.0294"/>
<text x="3.331" y="1.3110" font-size="0.7129" font-weight="bold" fill="#111">Case7  |  Flow best-of-20 :  best-WL (min TAP-2.5D wirelength)</text>
<text x="3.331" y="2.1831" font-size="0.6607" fill="#111">seed 67  |  HotSpot peak 80.22 C  |  TAP-2.5D avg 11.718 mm</text>
<text x="3.331" y="2.9609" font-size="0.5893" fill="#111">28 chiplets  |  legal True  |  wire_count 5632  |  canvas 26.43 -&gt; 27.55 mm</text>
<text x="3.331" y="30.5639" font-size="0.4556" fill="#666">raw body-50% candidate JSON; HotSpot and TAP evaluated after centring on the footprint-50% canvas</text>
</svg>
