<svg xmlns="http://www.w3.org/2000/svg" viewBox="0 0 45.165 41.849" width="900" height="834" font-family="Helvetica,Arial,sans-serif">
<rect x="0" y="0" width="45.165" height="41.849" fill="#ffffff"/>
<rect x="4.708" y="4.708" width="35.749" height="35.749" fill="#fbfbfb" stroke="#999" stroke-width="0.0753"/>
<rect x="4.7081" y="23.6460" width="9.1800" height="7.1800" fill="none" stroke="#9a9a9a" stroke-width="0.0502" stroke-dasharray="0.298"/>
<rect x="4.7981" y="23.7360" width="9.0000" height="7.0000" fill="#ee7f54" stroke="#555" stroke-width="0.0401"/>
<text x="9.2981" y="27.4863" font-size="0.7597" text-anchor="middle" fill="#333">A</text>
<rect x="14.9420" y="6.9636" width="8.3600" height="7.3600" fill="none" stroke="#9a9a9a" stroke-width="0.0502" stroke-dasharray="0.298"/>
<rect x="15.1220" y="7.1436" width="8.0000" height="7.0000" fill="#f2a459" stroke="#555" stroke-width="0.0401"/>
<text x="19.1220" y="10.8939" font-size="0.7597" text-anchor="middle" fill="#333">B</text>
<rect x="5.1547" y="31.7810" width="7.2700" height="6.2700" fill="none" stroke="#9a9a9a" stroke-width="0.0502" stroke-dasharray="0.298"/>
<rect x="5.2897" y="31.9160" width="7.0000" height="6.0000" fill="#f4cf68" stroke="#555" stroke-width="0.0401"/>
<text x="8.7897" y="35.1663" font-size="0.7597" text-anchor="middle" fill="#333">C</text>
<rect x="21.5962" y="21.7600" width="7.2700" height="7.2700" fill="none" stroke="#9a9a9a" stroke-width="0.0502" stroke-dasharray="0.298"/>
<rect x="21.7312" y="21.8950" width="7.0000" height="7.0000" fill="#f3b05b" stroke="#555" stroke-width="0.0401"/>
<text x="25.2312" y="25.6453" font-size="0.7597" text-anchor="middle" fill="#333">D</text>
<rect x="24.5542" y="5.1265" width="6.2700" height="8.2700" fill="none" stroke="#9a9a9a" stroke-width="0.0502" stroke-dasharray="0.298"/>
<rect x="24.6892" y="5.2615" width="6.0000" height="8.0000" fill="#f5d269" stroke="#555" stroke-width="0.0401"/>
<text x="27.6892" y="9.5117" font-size="0.7597" text-anchor="middle" fill="#333">E</text>
<rect x="13.7609" y="15.8656" width="7.1800" height="7.1800" fill="none" stroke="#9a9a9a" stroke-width="0.0502" stroke-dasharray="0.298"/>
<rect x="13.8509" y="15.9556" width="7.0000" height="7.0000" fill="#f3b55d" stroke="#555" stroke-width="0.0401"/>
<text x="17.3509" y="19.7058" font-size="0.7597" text-anchor="middle" fill="#333">F</text>
<rect x="4.8690" y="7.5529" width="9.3600" height="5.3600" fill="none" stroke="#9a9a9a" stroke-width="0.0502" stroke-dasharray="0.298"/>
<rect x="5.0490" y="7.7329" width="9.0000" height="5.0000" fill="#f4c664" stroke="#555" stroke-width="0.0401"/>
<text x="9.5490" y="10.4831" font-size="0.7597" text-anchor="middle" fill="#333">G</text>
<rect x="31.6248" y="7.1354" width="7.5400" height="5.5400" fill="none" stroke="#9a9a9a" stroke-width="0.0502" stroke-dasharray="0.298"/>
<rect x="31.8948" y="7.4054" width="7.0000" height="5.0000" fill="#f3b75e" stroke="#555" stroke-width="0.0401"/>
<text x="35.3948" y="10.1556" font-size="0.7597" text-anchor="middle" fill="#333">H</text>
<rect x="30.1730" y="21.8694" width="9.4500" height="5.4500" fill="none" stroke="#9a9a9a" stroke-width="0.0502" stroke-dasharray="0.298"/>
<rect x="30.3980" y="22.0944" width="9.0000" height="5.0000" fill="#f19657" stroke="#555" stroke-width="0.0401"/>
<text x="34.8980" y="24.8447" font-size="0.7597" text-anchor="middle" fill="#333">I</text>
<rect x="23.9422" y="13.8252" width="7.3600" height="7.3600" fill="none" stroke="#9a9a9a" stroke-width="0.0502" stroke-dasharray="0.298"/>
<rect x="24.1222" y="14.0052" width="7.0000" height="7.0000" fill="#f19f58" stroke="#555" stroke-width="0.0401"/>
<text x="27.6222" y="17.7554" font-size="0.7597" text-anchor="middle" fill="#333">J</text>
<rect x="4.8723" y="13.9010" width="8.1800" height="7.1800" fill="none" stroke="#9a9a9a" stroke-width="0.0502" stroke-dasharray="0.298"/>
<rect x="4.9623" y="13.9910" width="8.0000" height="7.0000" fill="#eb5f50" stroke="#555" stroke-width="0.0401"/>
<text x="8.9623" y="17.7413" font-size="0.7597" text-anchor="middle" fill="#333">K</text>
<rect x="24.3817" y="29.6977" width="6.5400" height="5.5400" fill="none" stroke="#9a9a9a" stroke-width="0.0502" stroke-dasharray="0.298"/>
<rect x="24.6517" y="29.9677" width="6.0000" height="5.0000" fill="#f19657" stroke="#555" stroke-width="0.0401"/>
<text x="27.6517" y="32.7180" font-size="0.7597" text-anchor="middle" fill="#333">L</text>
<rect x="14.4196" y="29.7303" width="9.3600" height="8.3600" fill="none" stroke="#9a9a9a" stroke-width="0.0502" stroke-dasharray="0.298"/>
<rect x="14.5996" y="29.9103" width="9.0000" height="8.0000" fill="#f4c262" stroke="#555" stroke-width="0.0401"/>
<text x="19.0996" y="34.1606" font-size="0.7597" text-anchor="middle" fill="#333">M</text>
<text x="4.708" y="1.9895" font-size="1.1281" font-weight="bold" fill="#111">syn4  |  Flow best-of-20 :  best-T (min HotSpot peak)</text>
<text x="4.708" y="3.1693" font-size="0.8937" fill="#111">seed 73  |  HotSpot peak 88.09 C  |  TAP-2.5D avg 16.062 mm</text>
<text x="4.708" y="4.2077" font-size="0.7867" fill="#111">13 chiplets  |  legal True  |  wire_count 13056  |  canvas 35.75 -&gt; 37.42 mm</text>
<text x="4.708" y="41.5409" font-size="0.6164" fill="#666">raw body-50% candidate JSON; HotSpot and TAP evaluated after centring on the footprint-50% canvas</text>
</svg>
